<svg width="310" height="218" viewBox="0 0 310 218" fill="none" xmlns="http://www.w3.org/2000/svg">
<rect x="48.0215" y="57.0254" width="223.103" height="39.0179" fill="white"/>
<rect x="69.0312" y="72.0332" width="24.011" height="10.0046" fill="#68808C"/>
<path d="M48.0215 96.043H271.124V182.086C271.124 186.504 267.542 190.086 263.124 190.086H56.0215C51.6032 190.086 48.0215 186.504 48.0215 182.086V96.043Z" fill="#68808C"/>
<path fill-rule="evenodd" clip-rule="evenodd" d="M271.124 107.05H48.0215V105.049H271.124V107.05Z" fill="#CBD6DC"/>
<path fill-rule="evenodd" clip-rule="evenodd" d="M271.124 176.081H48.0215V174.08H271.124V176.081Z" fill="#CBD6DC"/>
<circle cx="101.046" cy="77.0355" r="5.0023" fill="#C60024"/>
<path fill-rule="evenodd" clip-rule="evenodd" d="M151.069 70.0322H121.055C120.503 70.0322 120.055 70.4801 120.055 71.0326V83.0382C120.055 83.5907 120.503 84.0386 121.055 84.0386H151.069C151.621 84.0386 152.069 83.5907 152.069 83.0382V71.0326C152.069 70.4801 151.621 70.0322 151.069 70.0322ZM121.055 68.0312C119.397 68.0312 118.054 69.375 118.054 71.0326V83.0382C118.054 84.6958 119.397 86.0395 121.055 86.0395H151.069C152.727 86.0395 154.07 84.6958 154.07 83.0382V71.0326C154.07 69.375 152.727 68.0312 151.069 68.0312H121.055Z" fill="#68808C"/>
<circle cx="189.087" cy="134.061" r="48.0221" fill="#68808C"/>
<path fill-rule="evenodd" clip-rule="evenodd" d="M189.087 92.5414C166.156 92.5414 147.568 111.13 147.568 134.06C147.568 156.991 166.156 175.58 189.087 175.58C212.017 175.58 230.606 156.991 230.606 134.06C230.606 111.13 212.017 92.5414 189.087 92.5414ZM142.565 134.06C142.565 108.367 163.394 87.5391 189.087 87.5391C214.78 87.5391 235.608 108.367 235.608 134.06C235.608 159.754 214.78 180.582 189.087 180.582C163.394 180.582 142.565 159.754 142.565 134.06Z" fill="white"/>
<path d="M210.096 134.06C210.096 145.664 200.69 155.07 189.087 155.07C177.483 155.07 168.077 145.664 168.077 134.06C168.077 122.457 177.483 113.051 189.087 113.051C200.69 113.051 210.096 122.457 210.096 134.06Z" fill="#CBD6DC"/>
<path fill-rule="evenodd" clip-rule="evenodd" d="M215.098 134.061C215.098 148.427 203.452 160.073 189.086 160.073C174.72 160.073 163.074 148.427 163.074 134.061C163.074 119.695 174.72 108.049 189.086 108.049C203.452 108.049 215.098 119.695 215.098 134.061ZM189.086 155.07C200.689 155.07 210.096 145.664 210.096 134.061C210.096 122.457 200.689 113.051 189.086 113.051C177.483 113.051 168.077 122.457 168.077 134.061C168.077 145.664 177.483 155.07 189.086 155.07Z" fill="white"/>
<rect x="71.0322" y="53.0234" width="24.011" height="4.00184" fill="#68808C"/>
<rect x="111.051" y="54.0254" width="21.0097" height="3.00138" fill="#68808C"/>
<rect x="235.107" y="54.0254" width="21.0097" height="3.00138" fill="#68808C"/>
<rect x="101.046" y="43.0195" width="40.0184" height="11.0051" fill="white"/>
<rect x="225.103" y="43.0195" width="40.0184" height="11.0051" fill="white"/>
<path d="M161.074 39.0176H210.597L222.102 57.0259H151.069L161.074 39.0176Z" fill="#68808C"/>
<ellipse cx="197.09" cy="128.793" rx="5.00086" ry="8.43244" transform="rotate(-24.0544 197.09 128.793)" fill="white"/>
<path d="M300.67 195.998C300.594 195.998 300.518 195.998 300.442 195.922C300.138 195.77 300.062 195.465 300.214 195.161L303.714 188.39C303.866 188.086 304.17 188.01 304.475 188.162C304.779 188.314 304.855 188.618 304.703 188.923L301.203 195.694C301.051 195.922 300.822 195.998 300.67 195.998Z" fill="#CBD6DC"/>
<path d="M294.378 179.104C294.15 179.104 293.922 178.952 293.846 178.723L290.193 169.899C290.041 169.594 290.194 169.29 290.498 169.138C290.802 168.986 291.107 169.138 291.259 169.442L294.911 178.267C295.063 178.571 294.911 178.876 294.607 179.028C294.53 179.104 294.454 179.104 294.378 179.104Z" fill="#CBD6DC"/>
<path fill-rule="evenodd" clip-rule="evenodd" d="M280.629 6.60304C281.789 6.60304 282.73 5.6624 282.73 4.50207C282.73 3.34174 281.789 2.4011 280.629 2.4011C279.469 2.4011 278.528 3.34174 278.528 4.50207C278.528 5.6624 279.469 6.60304 280.629 6.60304ZM280.629 9.00414C283.115 9.00414 285.131 6.9885 285.131 4.50207C285.131 2.01565 283.115 0 280.629 0C278.143 0 276.127 2.01565 276.127 4.50207C276.127 6.9885 278.143 9.00414 280.629 9.00414Z" fill="#68808C"/>
<path fill-rule="evenodd" clip-rule="evenodd" d="M6.00276 194.858C7.54987 194.858 8.80405 193.609 8.80405 192.067C8.80405 190.526 7.54987 189.276 6.00276 189.276C4.45565 189.276 3.20147 190.526 3.20147 192.067C3.20147 193.609 4.45565 194.858 6.00276 194.858ZM6.00276 198.048C9.31799 198.048 12.0055 195.37 12.0055 192.067C12.0055 188.764 9.31799 186.086 6.00276 186.086C2.68753 186.086 0 188.764 0 192.067C0 195.37 2.68753 198.048 6.00276 198.048Z" fill="#68808C"/>
<path fill-rule="evenodd" clip-rule="evenodd" d="M24.5109 171.679C25.6712 171.679 26.6118 170.739 26.6118 169.578C26.6118 168.418 25.6712 167.477 24.5109 167.477C23.3505 167.477 22.4099 168.418 22.4099 169.578C22.4099 170.739 23.3505 171.679 24.5109 171.679ZM24.5109 174.08C26.9973 174.08 29.0129 172.065 29.0129 169.578C29.0129 167.092 26.9973 165.076 24.5109 165.076C22.0244 165.076 20.0088 167.092 20.0088 169.578C20.0088 172.065 22.0244 174.08 24.5109 174.08Z" fill="#CBD6DC"/>
<path fill-rule="evenodd" clip-rule="evenodd" d="M262.62 22.6762C263.265 22.6762 263.787 22.1536 263.787 21.509C263.787 20.8643 263.265 20.3418 262.62 20.3418C261.976 20.3418 261.453 20.8643 261.453 21.509C261.453 22.1536 261.976 22.6762 262.62 22.6762ZM262.62 24.0101C264.002 24.0101 265.121 22.8903 265.121 21.509C265.121 20.1276 264.002 19.0078 262.62 19.0078C261.239 19.0078 260.119 20.1276 260.119 21.509C260.119 22.8903 261.239 24.0101 262.62 24.0101Z" fill="#F3F7F8"/>
<path d="M48.7025 45.0406C48.6088 45.0406 48.6088 45.0406 48.515 45.0406C48.1401 44.9469 47.9526 44.5719 48.0463 44.197L49.265 39.5101C49.3587 39.1352 49.7336 38.9477 50.1086 39.0415C50.4835 39.1352 50.671 39.5101 50.5773 39.8851L49.3587 44.5719C49.3587 44.8531 49.0775 45.0406 48.7025 45.0406Z" fill="#7C98A7"/>
<path d="M39.5557 62.9439C39.3803 63.01 39.0841 63.0215 38.8972 62.7914L31.471 57.1762C31.1633 56.8914 31.1187 56.5075 31.3157 56.2329C31.6005 55.9252 31.9844 55.8807 32.259 56.0777L39.6852 61.6929C39.9929 61.9776 40.0374 62.3616 39.8404 62.6362C39.7858 62.757 39.7311 62.8777 39.5557 62.9439Z" fill="#CBD6DC"/>
<path d="M301.676 216.014C301.5 216.08 301.204 216.092 301.017 215.862L293.591 210.246C293.283 209.962 293.239 209.578 293.436 209.303C293.721 208.996 294.104 208.951 294.379 209.148L301.805 214.763C302.113 215.048 302.158 215.432 301.961 215.706C301.906 215.827 301.851 215.948 301.676 216.014Z" fill="#7C98A7"/>
<path d="M24.0233 35.1856H23.9296L12.5874 33.1234C12.2125 33.0297 11.9313 32.6547 12.025 32.2798C12.1187 31.9049 12.4937 31.6237 12.8686 31.7174L24.2108 33.7796C24.5857 33.8733 24.8669 34.2483 24.7732 34.6232C24.5857 34.9044 24.3045 35.1856 24.0233 35.1856Z" fill="#7C98A7"/>
<path d="M17.273 39.7781H17.1793C16.8043 39.6843 16.5231 39.3094 16.6168 38.9344L18.679 27.5923C18.7728 27.2174 19.1477 26.9362 19.5227 27.0299C19.8976 27.1236 20.1788 27.4986 20.0851 27.8735L18.0228 39.2157C17.9291 39.5906 17.6479 39.7781 17.273 39.7781Z" fill="#7C98A7"/>
<path d="M306.048 153.368L305.975 153.427L295.798 158.841C295.445 159 294.992 158.881 294.833 158.528C294.674 158.176 294.794 157.723 295.146 157.564L305.324 152.149C305.676 151.99 306.129 152.11 306.288 152.462C306.315 152.799 306.269 153.194 306.048 153.368Z" fill="#7C98A7"/>
<path d="M303.603 161.158L303.53 161.216C303.177 161.375 302.724 161.256 302.565 160.903L297.15 150.726C296.991 150.374 297.111 149.921 297.464 149.762C297.816 149.603 298.269 149.723 298.428 150.075L303.843 160.252C304.002 160.604 303.897 160.926 303.603 161.158Z" fill="#7C98A7"/>
</svg>
